<?xml version="1.0" encoding="utf-8"?>
<!-- Generator: Adobe Illustrator 15.0.1, SVG Export Plug-In  -->
<!DOCTYPE svg PUBLIC "-//W3C//DTD SVG 1.1//EN" "http://www.w3.org/Graphics/SVG/1.1/DTD/svg11.dtd" [
	<!ENTITY ns_flows "http://ns.adobe.com/Flows/1.0/">
]>
<svg version="1.1"
	 xmlns="http://www.w3.org/2000/svg" xmlns:xlink="http://www.w3.org/1999/xlink" xmlns:a="http://ns.adobe.com/AdobeSVGViewerExtensions/3.0/"
	 x="0px" y="0px" width="100px" height="100px" viewBox="-3.368 0 100 100" enable-background="new -3.368 0 100 100"
	 xml:space="preserve">
<defs>
</defs>
<g>
	<ellipse fill-rule="evenodd" clip-rule="evenodd" fill="#FFFFFF" cx="46.502" cy="93.15" rx="46.502" ry="6.976"/>
	<ellipse fill-rule="evenodd" clip-rule="evenodd" fill="#FEFEFE" cx="46.503" cy="93.15" rx="45.816" ry="6.872"/>
	<ellipse fill-rule="evenodd" clip-rule="evenodd" fill="#FDFDFD" cx="46.502" cy="93.15" rx="45.129" ry="6.77"/>
	<ellipse fill-rule="evenodd" clip-rule="evenodd" fill="#FCFCFC" cx="46.502" cy="93.15" rx="44.442" ry="6.666"/>
	<ellipse fill-rule="evenodd" clip-rule="evenodd" fill="#FBFBFB" cx="46.503" cy="93.15" rx="43.755" ry="6.563"/>
	<ellipse fill-rule="evenodd" clip-rule="evenodd" fill="#FAFAFA" cx="46.502" cy="93.15" rx="43.068" ry="6.46"/>
	<ellipse fill-rule="evenodd" clip-rule="evenodd" fill="#F9F9F9" cx="46.502" cy="93.15" rx="42.381" ry="6.357"/>
	<ellipse fill-rule="evenodd" clip-rule="evenodd" fill="#F8F8F8" cx="46.502" cy="93.15" rx="41.694" ry="6.254"/>
	<ellipse fill-rule="evenodd" clip-rule="evenodd" fill="#F7F7F7" cx="46.502" cy="93.15" rx="41.008" ry="6.151"/>
	<ellipse fill-rule="evenodd" clip-rule="evenodd" fill="#F6F6F6" cx="46.502" cy="93.15" rx="40.321" ry="6.048"/>
	<ellipse fill-rule="evenodd" clip-rule="evenodd" fill="#F5F5F5" cx="46.502" cy="93.15" rx="39.634" ry="5.945"/>
	<ellipse fill-rule="evenodd" clip-rule="evenodd" fill="#F4F4F4" cx="46.502" cy="93.15" rx="38.947" ry="5.842"/>
	<ellipse fill-rule="evenodd" clip-rule="evenodd" fill="#F3F3F3" cx="46.502" cy="93.15" rx="38.26" ry="5.739"/>
	<ellipse fill-rule="evenodd" clip-rule="evenodd" fill="#F2F2F2" cx="46.502" cy="93.15" rx="37.573" ry="5.636"/>
	<ellipse fill-rule="evenodd" clip-rule="evenodd" fill="#F1F1F1" cx="46.502" cy="93.15" rx="36.886" ry="5.533"/>
	<ellipse fill-rule="evenodd" clip-rule="evenodd" fill="#F0F0F0" cx="46.502" cy="93.15" rx="36.2" ry="5.43"/>
	<ellipse fill-rule="evenodd" clip-rule="evenodd" fill="#EFEFEF" cx="46.502" cy="93.15" rx="35.512" ry="5.327"/>
	<ellipse fill-rule="evenodd" clip-rule="evenodd" fill="#EEEEEE" cx="46.502" cy="93.15" rx="34.826" ry="5.224"/>
	<ellipse fill-rule="evenodd" clip-rule="evenodd" fill="#EDEDED" cx="46.502" cy="93.15" rx="34.139" ry="5.121"/>
	<ellipse fill-rule="evenodd" clip-rule="evenodd" fill="#ECECEC" cx="46.502" cy="93.15" rx="33.452" ry="5.018"/>
	<ellipse fill-rule="evenodd" clip-rule="evenodd" fill="#EBEBEB" cx="46.502" cy="93.15" rx="32.765" ry="4.915"/>
	<ellipse fill-rule="evenodd" clip-rule="evenodd" fill="#EAEAEA" cx="46.502" cy="93.15" rx="32.078" ry="4.812"/>
	<ellipse fill-rule="evenodd" clip-rule="evenodd" fill="#E9E9E9" cx="46.502" cy="93.15" rx="31.391" ry="4.709"/>
	<ellipse fill-rule="evenodd" clip-rule="evenodd" fill="#E8E8E8" cx="46.502" cy="93.15" rx="30.705" ry="4.605"/>
	<ellipse fill-rule="evenodd" clip-rule="evenodd" fill="#E7E7E7" cx="46.502" cy="93.15" rx="30.018" ry="4.503"/>
	<ellipse fill-rule="evenodd" clip-rule="evenodd" fill="#E6E6E6" cx="46.502" cy="93.15" rx="29.331" ry="4.399"/>
	<ellipse fill-rule="evenodd" clip-rule="evenodd" fill="#E5E5E5" cx="46.502" cy="93.15" rx="28.644" ry="4.297"/>
	<ellipse fill-rule="evenodd" clip-rule="evenodd" fill="#E4E4E4" cx="46.502" cy="93.15" rx="27.957" ry="4.193"/>
	<ellipse fill-rule="evenodd" clip-rule="evenodd" fill="#E4E4E4" cx="46.502" cy="93.15" rx="27.27" ry="4.091"/>
	<ellipse fill-rule="evenodd" clip-rule="evenodd" fill="#E3E3E3" cx="46.502" cy="93.15" rx="26.583" ry="3.987"/>
	<ellipse fill-rule="evenodd" clip-rule="evenodd" fill="#E2E2E2" cx="46.502" cy="93.15" rx="25.896" ry="3.885"/>
	<ellipse fill-rule="evenodd" clip-rule="evenodd" fill="#E1E1E1" cx="46.502" cy="93.15" rx="25.21" ry="3.781"/>
	<ellipse fill-rule="evenodd" clip-rule="evenodd" fill="#E0E0E0" cx="46.502" cy="93.15" rx="24.523" ry="3.679"/>
	<ellipse fill-rule="evenodd" clip-rule="evenodd" fill="#DFDFDF" cx="46.502" cy="93.15" rx="23.836" ry="3.575"/>
	<ellipse fill-rule="evenodd" clip-rule="evenodd" fill="#DEDEDE" cx="46.502" cy="93.15" rx="23.149" ry="3.473"/>
	<ellipse fill-rule="evenodd" clip-rule="evenodd" fill="#DDDDDD" cx="46.502" cy="93.15" rx="22.462" ry="3.369"/>
	<ellipse fill-rule="evenodd" clip-rule="evenodd" fill="#DCDCDC" cx="46.502" cy="93.15" rx="21.775" ry="3.267"/>
	<ellipse fill-rule="evenodd" clip-rule="evenodd" fill="#DBDBDB" cx="46.502" cy="93.15" rx="21.089" ry="3.163"/>
	<ellipse fill-rule="evenodd" clip-rule="evenodd" fill="#DADADA" cx="46.502" cy="93.15" rx="20.401" ry="3.061"/>
	<ellipse fill-rule="evenodd" clip-rule="evenodd" fill="#D9D9D9" cx="46.502" cy="93.15" rx="19.715" ry="2.957"/>
	<ellipse fill-rule="evenodd" clip-rule="evenodd" fill="#D8D8D8" cx="46.502" cy="93.15" rx="19.028" ry="2.854"/>
	<ellipse fill-rule="evenodd" clip-rule="evenodd" fill="#D7D7D7" cx="46.502" cy="93.15" rx="18.341" ry="2.751"/>
	<ellipse fill-rule="evenodd" clip-rule="evenodd" fill="#D6D6D6" cx="46.502" cy="93.15" rx="17.654" ry="2.648"/>
	<ellipse fill-rule="evenodd" clip-rule="evenodd" fill="#D5D5D5" cx="46.502" cy="93.15" rx="16.968" ry="2.545"/>
	<ellipse fill-rule="evenodd" clip-rule="evenodd" fill="#D4D4D4" cx="46.502" cy="93.15" rx="16.28" ry="2.442"/>
	<ellipse fill-rule="evenodd" clip-rule="evenodd" fill="#D3D3D3" cx="46.502" cy="93.15" rx="15.594" ry="2.339"/>
	<ellipse fill-rule="evenodd" clip-rule="evenodd" fill="#D2D2D2" cx="46.502" cy="93.15" rx="14.907" ry="2.236"/>
	<ellipse fill-rule="evenodd" clip-rule="evenodd" fill="#D1D1D1" cx="46.502" cy="93.15" rx="14.22" ry="2.133"/>
	<ellipse fill-rule="evenodd" clip-rule="evenodd" fill="#D0D0D0" cx="46.502" cy="93.15" rx="13.533" ry="2.03"/>
	<ellipse fill-rule="evenodd" clip-rule="evenodd" fill="#CFCFCF" cx="46.502" cy="93.15" rx="12.846" ry="1.927"/>
	<ellipse fill-rule="evenodd" clip-rule="evenodd" fill="#CECECE" cx="46.502" cy="93.15" rx="12.159" ry="1.824"/>
	<ellipse fill-rule="evenodd" clip-rule="evenodd" fill="#CDCDCD" cx="46.502" cy="93.15" rx="11.472" ry="1.721"/>
	<ellipse fill-rule="evenodd" clip-rule="evenodd" fill="#CCCCCC" cx="46.502" cy="93.15" rx="10.785" ry="1.618"/>
	<ellipse fill-rule="evenodd" clip-rule="evenodd" fill="#CBCBCB" cx="46.502" cy="93.15" rx="10.099" ry="1.515"/>
	<ellipse fill-rule="evenodd" clip-rule="evenodd" fill="#CACACA" cx="46.502" cy="93.15" rx="9.412" ry="1.412"/>
	<ellipse fill-rule="evenodd" clip-rule="evenodd" fill="#C9C9C9" cx="46.502" cy="93.15" rx="8.725" ry="1.309"/>
	<ellipse fill-rule="evenodd" clip-rule="evenodd" fill="#C8C8C8" cx="46.502" cy="93.15" rx="8.038" ry="1.206"/>
</g>
<linearGradient id="SVGID_1_" gradientUnits="userSpaceOnUse" x1="46.5015" y1="-26.2271" x2="46.5015" y2="118.5857">
	<stop  offset="0.0056" style="stop-color:#D1EB94"/>
	<stop  offset="0.3427" style="stop-color:#ABDF1C"/>
	<stop  offset="0.6798" style="stop-color:#7FC300"/>
	<stop  offset="1" style="stop-color:#277B00"/>
</linearGradient>
<path fill-rule="evenodd" clip-rule="evenodd" fill="url(#SVGID_1_)" d="M86.858,34.883c-2.973-11.02-9.536-19.117-19.514-23.151
	c7.797-0.144,15.053,5.008,16.396,9c-1.696-5.043-6.78-9.985-12.22-13.769C68.158,4.626,65.19,2.855,61.1,2.142
	c-5.002-0.869-5.592,2.17-7.472,5.897c4.71,3.871,11.216,12.668,15.254,22.253c5.752,13.661,6.873,25.338,2.724,35.391
	c-3.97,9.614-12.573,15.292-23.474,15.292c-10.901,0-20.886-6.725-24.189-16.496c-5.408-15.999,3.806-26.341,14.042-37.509
	C45.887,18.348,50.47,9.797,52.525,0.62C27.827-3.877,4.622,16.778,4.742,40.477c0.048,9.61,1.918,19.144,7.838,25.826
	c-3.625-6.682-5.665-17.138-5.155-24.534C8.5,26.185,17.89,13.127,30.661,10.075C10.38,23.036,6.151,49.929,15.345,67.007
	C22.133,79.613,34.026,85.8,47.922,86.424c13.648,0.611,27.548-7.012,34.243-18.104C88.033,58.593,89.816,45.845,86.858,34.883z"/>
<linearGradient id="SVGID_2_" gradientUnits="userSpaceOnUse" x1="30.5254" y1="9.5845" x2="84.0596" y2="137.9371">
	<stop  offset="0" style="stop-color:#B9DFF9"/>
	<stop  offset="1" style="stop-color:#0E5777"/>
</linearGradient>
<path fill="url(#SVGID_2_)" d="M52.834,11.854c-4.673,17.727-29.3,26.732-25.788,47.763c1.973,11.813,10.355,18.024,20.714,17.975
	c11.373-0.058,19.614-7.465,21.654-17.921C73.028,41.141,60.427,22.594,52.834,11.854z M49.271,31.024
	c-1.815,3.594-4.337,4.652-8.886,6.919c-3.178,1.583-5.339,2.617-7.362,4.674c1.582-2.271,3.061-3.622,4.875-5.333
	c2.888-2.718,4.734-4.339,7.686-7.42c2.361-2.471,4.467-5.645,5.151-8.322C50.964,24.67,50.464,28.657,49.271,31.024z"/>
</svg>
