<?xml version="1.0" encoding="utf-8"?>
<!-- Generator: Adobe Illustrator 15.0.1, SVG Export Plug-In  -->
<!DOCTYPE svg PUBLIC "-//W3C//DTD SVG 1.1//EN" "http://www.w3.org/Graphics/SVG/1.1/DTD/svg11.dtd" [
	<!ENTITY ns_flows "http://ns.adobe.com/Flows/1.0/">
]>
<svg version="1.1"
	 xmlns="http://www.w3.org/2000/svg" xmlns:xlink="http://www.w3.org/1999/xlink" xmlns:a="http://ns.adobe.com/AdobeSVGViewerExtensions/3.0/"
	 x="0px" y="0px" width="100px" height="100px" viewBox="0 0 100 100" enable-background="new 0 0 100 100" xml:space="preserve">
<defs>
</defs>
<g>
	<defs>
		<rect id="SVGID_1_" width="100" height="99.521"/>
	</defs>
	<clipPath id="SVGID_2_">
		<use xlink:href="#SVGID_1_"  overflow="visible"/>
	</clipPath>
	<path clip-path="url(#SVGID_2_)" fill="#83BF1D" d="M93.749,48.229c0,0,0,1.531-1.491,1.531h-9.516c0,0-1.492,0-1.492-1.531v-9.377
		c0,0,0-1.531,1.492-1.531h9.516c0,0,1.491,0,1.491,1.531V48.229z M93.749,66.89c0,0,0,1.531-1.491,1.531h-9.516
		c0,0-1.492,0-1.492-1.531v-9.378c0,0,0-1.531,1.492-1.531h9.516c0,0,1.491,0,1.491,1.531V66.89z M93.749,85.551
		c0,0,0,1.531-1.491,1.531h-9.516c0,0-1.492,0-1.492-1.531v-9.379c0,0,0-1.531,1.492-1.531h9.516c0,0,1.491,0,1.491,1.531V85.551z
		 M75,48.229c0,0,0,1.531-1.494,1.531h-9.513c0,0-1.494,0-1.494-1.531v-9.377c0,0,0-1.531,1.494-1.531h9.513
		c0,0,1.494,0,1.494,1.531V48.229z M75,66.89c0,0,0,1.531-1.494,1.531h-9.513c0,0-1.494,0-1.494-1.531v-9.378
		c0,0,0-1.531,1.494-1.531h9.513c0,0,1.494,0,1.494,1.531V66.89z M75,85.551c0,0,0,1.531-1.494,1.531h-9.513
		c0,0-1.494,0-1.494-1.531v-9.379c0,0,0-1.531,1.494-1.531h9.513c0,0,1.494,0,1.494,1.531V85.551z M43.75,17.129
		c0,0,0,1.531-1.493,1.531H13.993c0,0-1.493,0-1.493-1.531v-3.159c0,0,0-1.531,1.493-1.531h28.265c0,0,1.493,0,1.493,1.531V17.129z
		 M43.75,29.57c0,0,0,1.531-1.493,1.531H13.993c0,0-1.493,0-1.493-1.531v-3.158c0,0,0-1.531,1.493-1.531h28.265
		c0,0,1.493,0,1.493,1.531V29.57z M43.75,42.01c0,0,0,1.531-1.493,1.531H13.993c0,0-1.493,0-1.493-1.531v-3.157
		c0,0,0-1.531,1.493-1.531h28.265c0,0,1.493,0,1.493,1.531V42.01z M43.75,54.45c0,0,0,1.53-1.493,1.53H13.993
		c0,0-1.493,0-1.493-1.53v-3.158c0,0,0-1.531,1.493-1.531h28.265c0,0,1.493,0,1.493,1.531V54.45z M43.75,66.89
		c0,0,0,1.531-1.493,1.531H13.993c0,0-1.493,0-1.493-1.531v-3.158c0,0,0-1.529,1.493-1.529h28.265c0,0,1.493,0,1.493,1.529V66.89z
		 M37.5,91.771c0,0,0,1.531-1.493,1.531H20.242c0,0-1.493,0-1.493-1.531v-9.378c0,0,0-1.531,1.493-1.531h15.765
		c0,0,1.493,0,1.493,1.531V91.771z M51.492,24.881c0,0-1.493,0-1.493-1.531V1.531C50,1.531,50,0,48.507,0H7.743
		c0,0-1.493,0-1.493,1.531v90.239c0,0,0,1.531-1.493,1.531H1.493c0,0-1.493,0-1.493,1.529v3.159c0,0,0,1.531,1.493,1.531h97.013
		c0,0,1.494,0,1.494-1.531V26.412c0,0,0-1.531-1.494-1.531H51.492z"/>
</g>
</svg>
