<?xml version="1.0" encoding="utf-8"?>
<!-- Generator: Adobe Illustrator 15.0.1, SVG Export Plug-In  -->
<!DOCTYPE svg PUBLIC "-//W3C//DTD SVG 1.1//EN" "http://www.w3.org/Graphics/SVG/1.1/DTD/svg11.dtd" [
	<!ENTITY ns_flows "http://ns.adobe.com/Flows/1.0/">
]>
<svg version="1.1"
	 xmlns="http://www.w3.org/2000/svg" xmlns:xlink="http://www.w3.org/1999/xlink" xmlns:a="http://ns.adobe.com/AdobeSVGViewerExtensions/3.0/"
	 x="0px" y="0px" width="100px" height="100px" viewBox="-5.229 -0.084 100 100" enable-background="new -5.229 -0.084 100 100"
	 xml:space="preserve">
<defs>
</defs>
<g>
	<ellipse fill-rule="evenodd" clip-rule="evenodd" fill="#FFFFFF" cx="44.485" cy="93.259" rx="44.485" ry="6.657"/>
	<ellipse fill-rule="evenodd" clip-rule="evenodd" fill="#FEFEFE" cx="44.485" cy="93.259" rx="43.828" ry="6.559"/>
	<ellipse fill-rule="evenodd" clip-rule="evenodd" fill="#FDFDFD" cx="44.485" cy="93.259" rx="43.171" ry="6.461"/>
	<ellipse fill-rule="evenodd" clip-rule="evenodd" fill="#FCFCFC" cx="44.485" cy="93.259" rx="42.514" ry="6.362"/>
	<ellipse fill-rule="evenodd" clip-rule="evenodd" fill="#FBFBFB" cx="44.485" cy="93.259" rx="41.857" ry="6.264"/>
	<ellipse fill-rule="evenodd" clip-rule="evenodd" fill="#FAFAFA" cx="44.485" cy="93.259" rx="41.2" ry="6.166"/>
	<ellipse fill-rule="evenodd" clip-rule="evenodd" fill="#F9F9F9" cx="44.485" cy="93.259" rx="40.542" ry="6.067"/>
	<ellipse fill-rule="evenodd" clip-rule="evenodd" fill="#F8F8F8" cx="44.485" cy="93.259" rx="39.885" ry="5.969"/>
	<ellipse fill-rule="evenodd" clip-rule="evenodd" fill="#F7F7F7" cx="44.485" cy="93.259" rx="39.228" ry="5.87"/>
	<ellipse fill-rule="evenodd" clip-rule="evenodd" fill="#F6F6F6" cx="44.485" cy="93.259" rx="38.572" ry="5.772"/>
	<ellipse fill-rule="evenodd" clip-rule="evenodd" fill="#F5F5F5" cx="44.485" cy="93.259" rx="37.914" ry="5.674"/>
	<ellipse fill-rule="evenodd" clip-rule="evenodd" fill="#F4F4F4" cx="44.485" cy="93.259" rx="37.257" ry="5.575"/>
	<ellipse fill-rule="evenodd" clip-rule="evenodd" fill="#F3F3F3" cx="44.485" cy="93.259" rx="36.6" ry="5.478"/>
	<ellipse fill-rule="evenodd" clip-rule="evenodd" fill="#F2F2F2" cx="44.485" cy="93.259" rx="35.943" ry="5.379"/>
	<ellipse fill-rule="evenodd" clip-rule="evenodd" fill="#F1F1F1" cx="44.485" cy="93.259" rx="35.286" ry="5.28"/>
	<ellipse fill-rule="evenodd" clip-rule="evenodd" fill="#F0F0F0" cx="44.485" cy="93.259" rx="34.629" ry="5.183"/>
	<ellipse fill-rule="evenodd" clip-rule="evenodd" fill="#EFEFEF" cx="44.485" cy="93.259" rx="33.972" ry="5.084"/>
	<ellipse fill-rule="evenodd" clip-rule="evenodd" fill="#EEEEEE" cx="44.485" cy="93.259" rx="33.315" ry="4.985"/>
	<ellipse fill-rule="evenodd" clip-rule="evenodd" fill="#EDEDED" cx="44.485" cy="93.259" rx="32.658" ry="4.887"/>
	<ellipse fill-rule="evenodd" clip-rule="evenodd" fill="#ECECEC" cx="44.485" cy="93.259" rx="32" ry="4.789"/>
	<ellipse fill-rule="evenodd" clip-rule="evenodd" fill="#EBEBEB" cx="44.485" cy="93.259" rx="31.344" ry="4.69"/>
	<ellipse fill-rule="evenodd" clip-rule="evenodd" fill="#EAEAEA" cx="44.485" cy="93.259" rx="30.687" ry="4.592"/>
	<ellipse fill-rule="evenodd" clip-rule="evenodd" fill="#E9E9E9" cx="44.485" cy="93.259" rx="30.03" ry="4.494"/>
	<ellipse fill-rule="evenodd" clip-rule="evenodd" fill="#E8E8E8" cx="44.485" cy="93.259" rx="29.373" ry="4.396"/>
	<ellipse fill-rule="evenodd" clip-rule="evenodd" fill="#E7E7E7" cx="44.485" cy="93.259" rx="28.715" ry="4.297"/>
	<ellipse fill-rule="evenodd" clip-rule="evenodd" fill="#E6E6E6" cx="44.485" cy="93.259" rx="28.058" ry="4.199"/>
	<ellipse fill-rule="evenodd" clip-rule="evenodd" fill="#E5E5E5" cx="44.485" cy="93.259" rx="27.402" ry="4.101"/>
	<ellipse fill-rule="evenodd" clip-rule="evenodd" fill="#E4E4E4" cx="44.485" cy="93.259" rx="26.744" ry="4.002"/>
	<ellipse fill-rule="evenodd" clip-rule="evenodd" fill="#E4E4E4" cx="44.485" cy="93.259" rx="26.087" ry="3.903"/>
	<ellipse fill-rule="evenodd" clip-rule="evenodd" fill="#E3E3E3" cx="44.485" cy="93.259" rx="25.43" ry="3.806"/>
	<ellipse fill-rule="evenodd" clip-rule="evenodd" fill="#E2E2E2" cx="44.485" cy="93.259" rx="24.773" ry="3.707"/>
	<ellipse fill-rule="evenodd" clip-rule="evenodd" fill="#E1E1E1" cx="44.485" cy="93.259" rx="24.116" ry="3.608"/>
	<ellipse fill-rule="evenodd" clip-rule="evenodd" fill="#E0E0E0" cx="44.485" cy="93.259" rx="23.459" ry="3.511"/>
	<ellipse fill-rule="evenodd" clip-rule="evenodd" fill="#DFDFDF" cx="44.485" cy="93.259" rx="22.802" ry="3.412"/>
	<ellipse fill-rule="evenodd" clip-rule="evenodd" fill="#DEDEDE" cx="44.485" cy="93.259" rx="22.145" ry="3.313"/>
	<ellipse fill-rule="evenodd" clip-rule="evenodd" fill="#DDDDDD" cx="44.485" cy="93.259" rx="21.488" ry="3.216"/>
	<ellipse fill-rule="evenodd" clip-rule="evenodd" fill="#DCDCDC" cx="44.485" cy="93.259" rx="20.831" ry="3.117"/>
	<ellipse fill-rule="evenodd" clip-rule="evenodd" fill="#DBDBDB" cx="44.485" cy="93.259" rx="20.174" ry="3.019"/>
	<ellipse fill-rule="evenodd" clip-rule="evenodd" fill="#DADADA" cx="44.485" cy="93.259" rx="19.517" ry="2.921"/>
	<ellipse fill-rule="evenodd" clip-rule="evenodd" fill="#D9D9D9" cx="44.485" cy="93.259" rx="18.86" ry="2.822"/>
	<ellipse fill-rule="evenodd" clip-rule="evenodd" fill="#D8D8D8" cx="44.485" cy="93.259" rx="18.203" ry="2.724"/>
	<ellipse fill-rule="evenodd" clip-rule="evenodd" fill="#D7D7D7" cx="44.485" cy="93.259" rx="17.545" ry="2.625"/>
	<ellipse fill-rule="evenodd" clip-rule="evenodd" fill="#D6D6D6" cx="44.485" cy="93.259" rx="16.888" ry="2.527"/>
	<ellipse fill-rule="evenodd" clip-rule="evenodd" fill="#D5D5D5" cx="44.485" cy="93.259" rx="16.232" ry="2.429"/>
	<ellipse fill-rule="evenodd" clip-rule="evenodd" fill="#D4D4D4" cx="44.485" cy="93.259" rx="15.574" ry="2.33"/>
	<ellipse fill-rule="evenodd" clip-rule="evenodd" fill="#D3D3D3" cx="44.485" cy="93.259" rx="14.917" ry="2.232"/>
	<ellipse fill-rule="evenodd" clip-rule="evenodd" fill="#D2D2D2" cx="44.485" cy="93.259" rx="14.26" ry="2.134"/>
	<ellipse fill-rule="evenodd" clip-rule="evenodd" fill="#D1D1D1" cx="44.485" cy="93.259" rx="13.603" ry="2.035"/>
	<ellipse fill-rule="evenodd" clip-rule="evenodd" fill="#D0D0D0" cx="44.485" cy="93.259" rx="12.946" ry="1.938"/>
	<ellipse fill-rule="evenodd" clip-rule="evenodd" fill="#CFCFCF" cx="44.485" cy="93.259" rx="12.289" ry="1.839"/>
	<ellipse fill-rule="evenodd" clip-rule="evenodd" fill="#CECECE" cx="44.485" cy="93.259" rx="11.632" ry="1.74"/>
	<ellipse fill-rule="evenodd" clip-rule="evenodd" fill="#CDCDCD" cx="44.485" cy="93.259" rx="10.975" ry="1.642"/>
	<ellipse fill-rule="evenodd" clip-rule="evenodd" fill="#CCCCCC" cx="44.485" cy="93.259" rx="10.318" ry="1.544"/>
	<ellipse fill-rule="evenodd" clip-rule="evenodd" fill="#CBCBCB" cx="44.485" cy="93.259" rx="9.661" ry="1.445"/>
	<ellipse fill-rule="evenodd" clip-rule="evenodd" fill="#CACACA" cx="44.485" cy="93.259" rx="9.004" ry="1.347"/>
	<ellipse fill-rule="evenodd" clip-rule="evenodd" fill="#C9C9C9" cx="44.485" cy="93.259" rx="8.347" ry="1.249"/>
	<ellipse fill-rule="evenodd" clip-rule="evenodd" fill="#C8C8C8" cx="44.485" cy="93.259" rx="7.69" ry="1.15"/>
</g>
<linearGradient id="SVGID_1_" gradientUnits="userSpaceOnUse" x1="28.6807" y1="6.6577" x2="92.7216" y2="158.0913">
	<stop  offset="0.0056" style="stop-color:#D1EB94"/>
	<stop  offset="0.3427" style="stop-color:#ABDF1C"/>
	<stop  offset="0.6798" style="stop-color:#7FC300"/>
	<stop  offset="1" style="stop-color:#277B00"/>
</linearGradient>
<ellipse fill-rule="evenodd" clip-rule="evenodd" fill="url(#SVGID_1_)" cx="45.057" cy="45.382" rx="33.676" ry="33.6"/>
<linearGradient id="SVGID_2_" gradientUnits="userSpaceOnUse" x1="397.3105" y1="-104.8188" x2="411.3361" y2="20.9232" gradientTransform="matrix(0.8745 -0.4851 0.4851 0.8745 -283.4012 298.5769)">
	<stop  offset="0" style="stop-color:#B9DFF9"/>
	<stop  offset="1" style="stop-color:#0E5777"/>
</linearGradient>
<path fill-rule="evenodd" clip-rule="evenodd" fill="url(#SVGID_2_)" d="M40.375,60.903c3.502,0.762,7.312-0.015,10.506-1.552
	c1.366-0.657,2.897-1.837,3.26-2.829c0.406-1.114-0.068-2.318-1.032-2.628c-1.456-0.472-2.979,0.713-4.111,1.485
	c-5.507,3.77-12.993,3.384-18.611,0.012C32.961,57.771,36.563,60.073,40.375,60.903z"/>
<linearGradient id="SVGID_3_" gradientUnits="userSpaceOnUse" x1="30.1528" y1="0.3662" x2="75.4473" y2="131.2774">
	<stop  offset="0" style="stop-color:#B9DFF9"/>
	<stop  offset="1" style="stop-color:#0E5777"/>
</linearGradient>
<path fill-rule="evenodd" clip-rule="evenodd" fill="url(#SVGID_3_)" d="M43.816,0C25.744,0,10.077,10.856,3.9,27.656
	c-1.531,4.161-2.276,8.639-2.276,13.106c0,7.33,2.01,14.638,5.877,20.494c4.013,6.077,12.134,12.337,20.7,14.004
	c8.868,1.727,18.373-0.317,26.074-5.606c10.134-6.957,16.996-19.627,16.313-30.125c-0.312-4.771-2.563-10.722-7.946-13.111
	c-4.471-1.982-9.905-1.05-13.519,2.32c-2.426,2.259-4.03,5.335-4.877,8.778c-2.055-2.927-4.557-5.564-7.91-7.038
	c-5.891-2.59-13.327-1.091-17.055,4.319c-2.798,4.062-3.158,9.433-1.03,14.394c3.433,8.003,12.827,15.432,24.086,14.088
	c-9.408-1.988-14.977-7.881-18.689-16.425c-1.339-3.084-1.162-6.346,0.481-8.729c2.322-3.366,7.016-3.716,10.439-2.04
	c4.923,2.41,8.677,9.343,10.004,13.539c1.481-0.386,3.962-1.449,5.403-2.16c-1.368-5.704-0.128-11.369,3.164-14.434
	c1.913-1.784,4.77-2.283,7.111-1.245c2.797,1.241,4.26,4.977,4.465,8.128c0.546,8.429-5.375,19.136-13.776,24.905
	c-6.408,4.399-14.287,6.106-21.612,4.681c-7.009-1.364-12.858-5.33-16.915-11.472c-5.153-7.804-6.355-19.195-2.99-28.347
	C14.742,15.216,28.241,5.871,43.816,5.871c20.758,0,37.647,16.851,37.647,37.563c0,20.714-16.89,37.564-37.647,37.564
	c-14.422,0-25.691-5.671-33.622-13.434C15.747,79.213,28.917,86.87,43.816,86.87c24.003,0,43.53-19.486,43.53-43.436
	C87.347,19.484,67.819,0,43.816,0z"/>
</svg>
