<?xml version="1.0" encoding="utf-8"?>
<!-- Generator: Adobe Illustrator 15.0.1, SVG Export Plug-In  -->
<!DOCTYPE svg PUBLIC "-//W3C//DTD SVG 1.1//EN" "http://www.w3.org/Graphics/SVG/1.1/DTD/svg11.dtd" [
	<!ENTITY ns_flows "http://ns.adobe.com/Flows/1.0/">
]>
<svg version="1.1"
	 xmlns="http://www.w3.org/2000/svg" xmlns:xlink="http://www.w3.org/1999/xlink" xmlns:a="http://ns.adobe.com/AdobeSVGViewerExtensions/3.0/"
	 x="0px" y="0px" width="100px" height="100px" viewBox="-3.463 0 100 100" enable-background="new -3.463 0 100 100"
	 xml:space="preserve">
<defs>
</defs>
<g>
	<defs>
		<rect id="SVGID_1_" x="10.604" y="7.046" width="67.126" height="66.805"/>
	</defs>
	<clipPath id="SVGID_2_">
		<use xlink:href="#SVGID_1_"  overflow="visible"/>
	</clipPath>
</g>
<g>
	<ellipse fill-rule="evenodd" clip-rule="evenodd" fill="#FFFFFF" cx="46.508" cy="93.079" rx="46.508" ry="6.976"/>
	<ellipse fill-rule="evenodd" clip-rule="evenodd" fill="#FEFEFE" cx="46.508" cy="93.079" rx="45.821" ry="6.872"/>
	<ellipse fill-rule="evenodd" clip-rule="evenodd" fill="#FDFDFD" cx="46.508" cy="93.079" rx="45.134" ry="6.77"/>
	<ellipse fill-rule="evenodd" clip-rule="evenodd" fill="#FCFCFC" cx="46.508" cy="93.079" rx="44.447" ry="6.666"/>
	<ellipse fill-rule="evenodd" clip-rule="evenodd" fill="#FBFBFB" cx="46.507" cy="93.079" rx="43.76" ry="6.563"/>
	<ellipse fill-rule="evenodd" clip-rule="evenodd" fill="#FAFAFA" cx="46.508" cy="93.079" rx="43.073" ry="6.46"/>
	<ellipse fill-rule="evenodd" clip-rule="evenodd" fill="#F9F9F9" cx="46.507" cy="93.079" rx="42.386" ry="6.357"/>
	<ellipse fill-rule="evenodd" clip-rule="evenodd" fill="#F8F8F8" cx="46.508" cy="93.079" rx="41.699" ry="6.254"/>
	<ellipse fill-rule="evenodd" clip-rule="evenodd" fill="#F7F7F7" cx="46.508" cy="93.079" rx="41.012" ry="6.151"/>
	<ellipse fill-rule="evenodd" clip-rule="evenodd" fill="#F6F6F6" cx="46.508" cy="93.079" rx="40.325" ry="6.048"/>
	<ellipse fill-rule="evenodd" clip-rule="evenodd" fill="#F5F5F5" cx="46.508" cy="93.079" rx="39.638" ry="5.945"/>
	<ellipse fill-rule="evenodd" clip-rule="evenodd" fill="#F4F4F4" cx="46.507" cy="93.079" rx="38.951" ry="5.842"/>
	<ellipse fill-rule="evenodd" clip-rule="evenodd" fill="#F3F3F3" cx="46.508" cy="93.079" rx="38.264" ry="5.739"/>
	<ellipse fill-rule="evenodd" clip-rule="evenodd" fill="#F2F2F2" cx="46.508" cy="93.079" rx="37.578" ry="5.636"/>
	<ellipse fill-rule="evenodd" clip-rule="evenodd" fill="#F1F1F1" cx="46.508" cy="93.079" rx="36.89" ry="5.533"/>
	<ellipse fill-rule="evenodd" clip-rule="evenodd" fill="#F0F0F0" cx="46.508" cy="93.079" rx="36.204" ry="5.43"/>
	<ellipse fill-rule="evenodd" clip-rule="evenodd" fill="#EFEFEF" cx="46.508" cy="93.079" rx="35.516" ry="5.327"/>
	<ellipse fill-rule="evenodd" clip-rule="evenodd" fill="#EEEEEE" cx="46.508" cy="93.079" rx="34.83" ry="5.224"/>
	<ellipse fill-rule="evenodd" clip-rule="evenodd" fill="#EDEDED" cx="46.507" cy="93.079" rx="34.143" ry="5.121"/>
	<ellipse fill-rule="evenodd" clip-rule="evenodd" fill="#ECECEC" cx="46.508" cy="93.079" rx="33.456" ry="5.018"/>
	<ellipse fill-rule="evenodd" clip-rule="evenodd" fill="#EBEBEB" cx="46.508" cy="93.079" rx="32.769" ry="4.915"/>
	<ellipse fill-rule="evenodd" clip-rule="evenodd" fill="#EAEAEA" cx="46.508" cy="93.079" rx="32.082" ry="4.812"/>
	<ellipse fill-rule="evenodd" clip-rule="evenodd" fill="#E9E9E9" cx="46.508" cy="93.079" rx="31.395" ry="4.709"/>
	<ellipse fill-rule="evenodd" clip-rule="evenodd" fill="#E8E8E8" cx="46.508" cy="93.079" rx="30.708" ry="4.605"/>
	<ellipse fill-rule="evenodd" clip-rule="evenodd" fill="#E7E7E7" cx="46.508" cy="93.079" rx="30.021" ry="4.503"/>
	<ellipse fill-rule="evenodd" clip-rule="evenodd" fill="#E6E6E6" cx="46.507" cy="93.079" rx="29.334" ry="4.399"/>
	<ellipse fill-rule="evenodd" clip-rule="evenodd" fill="#E5E5E5" cx="46.508" cy="93.079" rx="28.647" ry="4.297"/>
	<ellipse fill-rule="evenodd" clip-rule="evenodd" fill="#E4E4E4" cx="46.508" cy="93.079" rx="27.96" ry="4.193"/>
	<ellipse fill-rule="evenodd" clip-rule="evenodd" fill="#E4E4E4" cx="46.508" cy="93.079" rx="27.273" ry="4.09"/>
	<ellipse fill-rule="evenodd" clip-rule="evenodd" fill="#E3E3E3" cx="46.508" cy="93.079" rx="26.586" ry="3.987"/>
	<ellipse fill-rule="evenodd" clip-rule="evenodd" fill="#E2E2E2" cx="46.508" cy="93.079" rx="25.899" ry="3.884"/>
	<ellipse fill-rule="evenodd" clip-rule="evenodd" fill="#E1E1E1" cx="46.508" cy="93.079" rx="25.212" ry="3.781"/>
	<ellipse fill-rule="evenodd" clip-rule="evenodd" fill="#E0E0E0" cx="46.508" cy="93.079" rx="24.526" ry="3.678"/>
	<ellipse fill-rule="evenodd" clip-rule="evenodd" fill="#DFDFDF" cx="46.508" cy="93.079" rx="23.839" ry="3.575"/>
	<ellipse fill-rule="evenodd" clip-rule="evenodd" fill="#DEDEDE" cx="46.508" cy="93.079" rx="23.152" ry="3.472"/>
	<ellipse fill-rule="evenodd" clip-rule="evenodd" fill="#DDDDDD" cx="46.508" cy="93.079" rx="22.465" ry="3.369"/>
	<ellipse fill-rule="evenodd" clip-rule="evenodd" fill="#DCDCDC" cx="46.508" cy="93.079" rx="21.778" ry="3.266"/>
	<ellipse fill-rule="evenodd" clip-rule="evenodd" fill="#DBDBDB" cx="46.508" cy="93.079" rx="21.091" ry="3.163"/>
	<ellipse fill-rule="evenodd" clip-rule="evenodd" fill="#DADADA" cx="46.508" cy="93.079" rx="20.404" ry="3.06"/>
	<ellipse fill-rule="evenodd" clip-rule="evenodd" fill="#D9D9D9" cx="46.508" cy="93.079" rx="19.717" ry="2.957"/>
	<ellipse fill-rule="evenodd" clip-rule="evenodd" fill="#D8D8D8" cx="46.508" cy="93.079" rx="19.03" ry="2.854"/>
	<ellipse fill-rule="evenodd" clip-rule="evenodd" fill="#D7D7D7" cx="46.508" cy="93.079" rx="18.343" ry="2.751"/>
	<ellipse fill-rule="evenodd" clip-rule="evenodd" fill="#D6D6D6" cx="46.508" cy="93.079" rx="17.656" ry="2.647"/>
	<ellipse fill-rule="evenodd" clip-rule="evenodd" fill="#D5D5D5" cx="46.508" cy="93.079" rx="16.969" ry="2.545"/>
	<ellipse fill-rule="evenodd" clip-rule="evenodd" fill="#D4D4D4" cx="46.508" cy="93.079" rx="16.282" ry="2.441"/>
	<ellipse fill-rule="evenodd" clip-rule="evenodd" fill="#D3D3D3" cx="46.508" cy="93.079" rx="15.595" ry="2.339"/>
	<ellipse fill-rule="evenodd" clip-rule="evenodd" fill="#D2D2D2" cx="46.508" cy="93.079" rx="14.909" ry="2.235"/>
	<ellipse fill-rule="evenodd" clip-rule="evenodd" fill="#D1D1D1" cx="46.508" cy="93.079" rx="14.221" ry="2.133"/>
	<ellipse fill-rule="evenodd" clip-rule="evenodd" fill="#D0D0D0" cx="46.508" cy="93.079" rx="13.535" ry="2.029"/>
	<ellipse fill-rule="evenodd" clip-rule="evenodd" fill="#CFCFCF" cx="46.508" cy="93.079" rx="12.847" ry="1.927"/>
	<ellipse fill-rule="evenodd" clip-rule="evenodd" fill="#CECECE" cx="46.508" cy="93.079" rx="12.161" ry="1.823"/>
	<ellipse fill-rule="evenodd" clip-rule="evenodd" fill="#CDCDCD" cx="46.508" cy="93.079" rx="11.474" ry="1.721"/>
	<ellipse fill-rule="evenodd" clip-rule="evenodd" fill="#CCCCCC" cx="46.508" cy="93.079" rx="10.787" ry="1.617"/>
	<ellipse fill-rule="evenodd" clip-rule="evenodd" fill="#CBCBCB" cx="46.508" cy="93.079" rx="10.1" ry="1.515"/>
	<ellipse fill-rule="evenodd" clip-rule="evenodd" fill="#CACACA" cx="46.508" cy="93.079" rx="9.413" ry="1.411"/>
	<ellipse fill-rule="evenodd" clip-rule="evenodd" fill="#C9C9C9" cx="46.508" cy="93.079" rx="8.726" ry="1.309"/>
	<ellipse fill-rule="evenodd" clip-rule="evenodd" fill="#C8C8C8" cx="46.508" cy="93.079" rx="8.039" ry="1.205"/>
</g>
<linearGradient id="SVGID_4_" gradientUnits="userSpaceOnUse" x1="67.6792" y1="-31.897" x2="67.6792" y2="231.9001">
	<stop  offset="0" style="stop-color:#B9DFF9"/>
	<stop  offset="1" style="stop-color:#0E5777"/>
</linearGradient>
<path fill="url(#SVGID_4_)" d="M88.757,53.245c1.917-8.788,0.668-14.479-9.351-13.36c-6.931,0.77-14.723,4.391-22.769,10.919
	c-1.796,1.456-4.518,0.603-4.896-1.678c-1.701-10.288,0.192-24.296,8.883-33.847c1.986-2.183,4.027-2.287,6.508-0.534
	c3.588,2.534,11.012,8.406,13.111,15.588c-5.706,1.118-15.265,5.402-18.698,7.426c-2.073,1.218-2.8-1.432-2.654-3.034
	c0.281-3.01,2.777-6.646,4.687-8.255c0.914-0.771,1.963-1.13,2.982-0.242c1.232,1.062,0.389,3.142,0.586,4.585
	c0.085,0.637,0.542,1.523,1.454,1.307c0.729-0.174,5.631-2.24,6.479-2.504c-0.727-3.55-6.802-9.659-10.936-12.029
	c-6.216,7.269-10.223,15.663-8.563,28.21c8.523-5.772,21.205-11.735,30.362-11.411c1.37,0.05,2.218-1.572,1.895-2.901
	c-1.633-6.7-7.411-15.533-16.014-22.664c-4.799-3.982-12.86-8.838-17.007-1.667c-10.94,18.927-12.161,50.902-2.084,70.389
	c3.983,7.7,9.836,6.903,15.401,3.607C79.123,74.648,86.316,64.428,88.757,53.245z"/>
<linearGradient id="SVGID_5_" gradientUnits="userSpaceOnUse" x1="-1.6733" y1="-9.6133" x2="77.3894" y2="93.8657">
	<stop  offset="0.0056" style="stop-color:#D1EB94"/>
	<stop  offset="0.3427" style="stop-color:#ABDF1C"/>
	<stop  offset="0.6798" style="stop-color:#7FC300"/>
	<stop  offset="1" style="stop-color:#277B00"/>
</linearGradient>
<path fill="url(#SVGID_5_)" d="M30.404,52.313c-3.521,6.033-9.105,13.026-14.72,17.73c-0.929,0.776-1.058,2.166-0.237,3.063
	c7.527,8.235,15.762,13.149,27.809,13.36c3.547,0.063,5.892-2.123,4.583-6.759c-2.787-9.876-4.391-18.472-5.146-28.759
	c-1.146-15.534,1.712-32.275,7.946-44.496c1.656-3.238,4.393-6.349-1.451-6.446C16.559-0.54-5.34,29.819,6.982,61.322
	c1.649,4.213,4.084,4.966,6.976,3.172c5.609-3.476,9.91-10.476,13.246-16.038c2.363-3.941,5.364-3.289,7.633,0.234
	c4.622,7.184,6.515,19.312,5.66,27.599c-0.396,3.839-1.815,6.438-5.776,5.104c-4.104-1.381-9.595-4.997-14.283-9.69
	c3.962-3.298,7.026-7.552,8.835-10.587c1.096-1.831,2.785-0.08,3.354,1.229c1.067,2.458,0.67,6.35-0.133,8.414
	c-0.382,0.988-1.04,1.714-2.214,1.458c-1.412-0.307-1.64-2.279-2.405-3.317c-0.337-0.461-1.075-0.954-1.688-0.398
	c-0.493,0.445-0.88,0.993-1.429,1.563c2.076,2.45,6.425,6.099,11.255,7.224C38.359,67.705,35.489,56.357,30.404,52.313z"/>
</svg>
